<svg id="svg" fill="#000000" stroke="#000000" width="214" height="214" version="1.1" viewBox="143 143 514 514" xmlns="http://www.w3.org/2000/svg" stroke-width="4">
    <g id="IconSvg_bgCarrier" stroke-width="0"></g>
    <g id="IconSvg_tracerCarrier" stroke-linecap="round" stroke-linejoin="round" stroke="#CCCCCC" stroke-width="0">
      <path xmlns="http://www.w3.org/2000/svg" d="m443.32 601.98c-55.773 11.941-111.09 0.15234-155.48-28.566-44.387-28.719-77.84-74.363-89.777-130.08-11.992-55.773-0.20312-111.14 28.516-155.53s74.363-77.789 130.13-89.777c55.773-11.941 111.09-0.15234 155.48 28.566 44.387 28.719 77.84 74.363 89.777 130.08 4.5859 21.461 5.7422 43.43 3.4766 64.992-2.3164 21.562-7.9609 42.773-16.977 62.824-1.1094 2.5195-4.082 3.6797-6.6016 2.5195-2.5195-1.1094-3.6797-4.082-2.5703-6.6016 8.5664-19.094 13.957-39.246 16.121-59.801 2.168-20.504 1.1094-41.363-3.2734-61.816-11.387-53.051-43.176-96.48-85.395-123.79-42.219-27.305-94.867-38.492-147.97-27.105-53.051 11.336-96.48 43.176-123.79 85.395s-38.492 94.867-27.105 147.92c11.387 53.051 43.176 96.48 85.395 123.79 42.219 27.305 94.867 38.492 147.97 27.105 16.273-3.4766 69.172-22.723 74.16-36.375 1.6133-4.332 1.4102-9.5742-1.0078-13.551-3.9297-6.4492-12.645-8.2617-19.648-8.5156-23.578-0.95703-37.535-18.941-42.02-25.797l-1.6641 0.75391c-53.203 24.234-179.86-194.37-132.3-228.53 29.473-21.16 33.301-23.879 63.582 18.488 5.9961 8.4141 8.8164 16.727 9.2188 23.879 0.90625 18.539-10.078 16.777-16.223 27.809-8.0117 14.41 26.602 74.109 43.023 74.363 12.594 0.15234 16.574-10.277 32.195-0.20312 6.0469 3.8789 11.84 10.48 16.172 19.902 18.992 41.516 18.035 48.113-4.7852 59.246 4.1797 6.0977 15.215 19.297 33.199 20 10.68 0.45312 21.914 3.6797 27.809 13.402 3.9805 6.5508 4.5352 15.062 1.9141 22.219-7.7578 21.059-64.891 39.195-81.566 42.773z"></path>

      </g>
     <g id="IconSvg_iconCarrier">
      <path xmlns="http://www.w3.org/2000/svg" d="m443.32 601.98c-55.773 11.941-111.09 0.15234-155.48-28.566-44.387-28.719-77.84-74.363-89.777-130.08-11.992-55.773-0.20312-111.14 28.516-155.53s74.363-77.789 130.13-89.777c55.773-11.941 111.09-0.15234 155.48 28.566 44.387 28.719 77.84 74.363 89.777 130.08 4.5859 21.461 5.7422 43.43 3.4766 64.992-2.3164 21.562-7.9609 42.773-16.977 62.824-1.1094 2.5195-4.082 3.6797-6.6016 2.5195-2.5195-1.1094-3.6797-4.082-2.5703-6.6016 8.5664-19.094 13.957-39.246 16.121-59.801 2.168-20.504 1.1094-41.363-3.2734-61.816-11.387-53.051-43.176-96.48-85.395-123.79-42.219-27.305-94.867-38.492-147.97-27.105-53.051 11.336-96.48 43.176-123.79 85.395s-38.492 94.867-27.105 147.92c11.387 53.051 43.176 96.48 85.395 123.79 42.219 27.305 94.867 38.492 147.97 27.105 16.273-3.4766 69.172-22.723 74.16-36.375 1.6133-4.332 1.4102-9.5742-1.0078-13.551-3.9297-6.4492-12.645-8.2617-19.648-8.5156-23.578-0.95703-37.535-18.941-42.02-25.797l-1.6641 0.75391c-53.203 24.234-179.86-194.37-132.3-228.53 29.473-21.16 33.301-23.879 63.582 18.488 5.9961 8.4141 8.8164 16.727 9.2188 23.879 0.90625 18.539-10.078 16.777-16.223 27.809-8.0117 14.41 26.602 74.109 43.023 74.363 12.594 0.15234 16.574-10.277 32.195-0.20312 6.0469 3.8789 11.84 10.48 16.172 19.902 18.992 41.516 18.035 48.113-4.7852 59.246 4.1797 6.0977 15.215 19.297 33.199 20 10.68 0.45312 21.914 3.6797 27.809 13.402 3.9805 6.5508 4.5352 15.062 1.9141 22.219-7.7578 21.059-64.891 39.195-81.566 42.773z"></path>

      </g>
      </svg>